<svg width="289" height="289" viewBox="0 0 289 289" fill="none" xmlns="http://www.w3.org/2000/svg">
<rect width="289" height="289" fill="white" fill-opacity="0.05"/>
<path opacity="0.6" fill-rule="evenodd" clip-rule="evenodd" d="M237.388 132.588L237.553 140.176L242.988 140.347L248.423 140.518V132.759V125H242.824H237.224L237.388 132.588ZM250.774 132.439V138.093H254.887H259V132.439V126.785H254.887H250.774V132.439ZM230.795 132.439V136.902H233.146H235.496V132.439V127.976H233.146H230.795V132.439ZM41.5861 132.662C31.4524 136.029 27.7394 148.254 34.2317 156.875C36.4141 159.773 41.5162 162.096 45.6975 162.096C50.5728 162.096 55.8341 159.608 57.4582 156.535C57.9794 155.549 57.7514 155.225 55.8412 154.238L53.6177 153.089L52.0024 154.497C49.5104 156.668 46.4561 157.388 43.3436 156.539C34.968 154.255 33.8545 142.442 41.6302 138.369C44.9648 136.623 49.8271 137.526 52.3626 140.364L53.4367 141.566L55.5926 140.317C56.7784 139.63 57.8613 138.979 57.9994 138.872C58.5235 138.462 54.7118 134.956 52.4772 133.794C49.9446 132.474 44.0064 131.858 41.5861 132.662ZM210.036 133.072C201.996 135.675 197.952 146.119 201.928 154.012C203.443 157.019 207.13 160.362 210.006 161.336C212.968 162.339 217.137 162.333 220.168 161.32C222.42 160.567 222.673 160.599 223.936 161.8C225.664 163.444 226.17 163.419 227.857 161.6L229.238 160.112L227.941 158.715L226.646 157.318L228.226 154.232C231.056 148.708 230.241 141.896 226.211 137.377C222.151 132.826 215.919 131.167 210.036 133.072ZM191.426 147.317V161.898H194.071H196.715V147.317V132.737H194.071H191.426V147.317ZM219.864 138.846C221.123 139.578 222.643 141.109 223.242 142.249C224.83 145.272 224.618 150.734 222.829 152.875C222.737 152.986 221.684 151.982 220.49 150.643C219.296 149.305 218.034 148.21 217.685 148.21C217.337 148.21 216.306 148.933 215.396 149.816L213.74 151.422L216.14 153.899L218.54 156.375L216.656 156.758C210.592 157.986 204.607 151.886 205.761 145.655C207.009 138.916 214.094 135.496 219.864 138.846ZM66.982 140.866C66.2434 141.026 64.6181 142.141 63.3706 143.344C56.501 149.97 60.6906 162.127 69.8436 162.127C71.8884 162.127 73.2316 161.748 74.4679 160.822C76.6097 159.218 76.8453 159.206 76.8453 160.707C76.8453 161.699 77.2373 161.898 79.1957 161.898H81.5461V151.483V141.068H79.1957C77.2255 141.068 76.8453 141.263 76.8453 142.276C76.8453 143.475 76.8324 143.474 75.1437 142.21C73.4461 140.939 69.5844 140.303 66.982 140.866ZM94.0925 141.034C93.3985 141.334 92.6558 141.866 92.4419 142.217C91.8719 143.151 90.9476 142.993 90.9476 141.961C90.9476 141.316 90.2948 141.068 88.5973 141.068H86.2469V151.483V161.898H88.5973H90.9476V155.134C90.9476 149.192 91.0957 148.179 92.1657 146.802C93.6141 144.937 96.1743 144.711 97.6139 146.323C98.4072 147.211 98.5864 148.752 98.5864 154.688V161.966L101.084 161.783L103.581 161.6L103.875 154.26C104.13 147.883 104.318 146.809 105.309 146.077C106.764 145.002 108.625 145.002 110.079 146.077C111.083 146.82 111.243 147.816 111.415 154.409L111.609 161.898H113.912H116.214L116.212 154.012C116.21 147.242 116.048 145.858 115.063 144.222C112.749 140.377 107.538 139.422 103.869 142.168C102.283 143.357 102.282 143.357 101.108 142.167C99.7821 140.824 95.9916 140.212 94.0925 141.034ZM125.011 141.812C117.257 145.779 117.437 156.969 125.322 161.154C129.024 163.119 135.451 162.053 138.156 159.026C139.215 157.841 139.199 157.798 137.368 156.839C135.631 155.93 135.354 155.931 133.418 156.862C130.614 158.21 127.51 157.672 125.663 155.52L124.242 153.863L132.274 153.698L140.306 153.533V151.447C140.306 143.184 132.249 138.109 125.011 141.812ZM152.646 141.174C151.838 141.483 150.582 142.301 149.855 142.993L148.532 144.252V142.626C148.532 141.092 148.397 141.01 146.148 141.183L143.763 141.366V151.483V161.6L146.148 161.783L148.532 161.966V156.306C148.532 153.193 148.826 149.994 149.184 149.196C149.877 147.656 151.95 146.424 153.848 146.424C154.814 146.424 154.996 146.007 154.996 143.781C154.996 140.749 154.679 140.397 152.646 141.174ZM161.742 141.303C154.117 144.668 153.557 156.638 160.824 160.936C163.521 162.531 168.048 162.468 170.271 160.803C171.886 159.594 171.918 159.593 172.213 160.735C172.45 161.649 173.027 161.898 174.919 161.898H177.324V151.483V141.068H174.68C172.722 141.068 172.036 141.3 172.036 141.961C172.036 143.074 172.149 143.087 169.392 141.663C166.746 140.298 164.283 140.181 161.742 141.303ZM74.864 147.091C77.5622 149.658 77.0134 154.858 73.8645 156.565C70.987 158.125 66.9444 157.029 65.7457 154.365C64.9289 152.549 64.906 149.677 65.6957 148.182C67.2946 145.156 72.2151 144.571 74.864 147.091ZM133.469 146.468C136.365 148.775 135.567 149.4 129.729 149.4C126.82 149.4 124.441 149.171 124.441 148.892C124.441 148.612 125.089 147.675 125.881 146.809C127.715 144.805 131.186 144.649 133.469 146.468ZM170.714 147.33C172.371 149.261 172.524 153.428 171.008 155.294C168.811 157.995 163.513 157.857 161.698 155.052C159.731 152.012 160.946 147.115 163.99 145.807C166.079 144.91 169.255 145.63 170.714 147.33Z" fill="white"/>
</svg>
