<svg width="289" height="289" viewBox="0 0 289 289" fill="none" xmlns="http://www.w3.org/2000/svg">
<rect width="289" height="289" fill="white" fill-opacity="0.05"/>
<path opacity="0.6" fill-rule="evenodd" clip-rule="evenodd" d="M62.5831 125.152C60.7924 125.487 57.0541 126.964 55.5435 127.932C51.5942 130.462 48.2665 135.62 47.2973 140.713C46.7132 143.784 47.0218 149.203 47.9426 152.028C49.4677 156.709 53.6036 161.227 57.873 162.877C62.7121 164.748 69.7879 164.227 73.6361 161.718C76.8596 159.616 80.4849 155.053 79.6969 154.089C79.3718 153.692 78.7438 154.173 76.7909 156.313C75.3978 157.84 73.4411 159.504 72.3524 160.087C70.627 161.012 69.9928 161.129 66.7804 161.118C62.5148 161.103 60.5901 160.395 57.8501 157.831C54.8334 155.008 53.42 150.824 53.4319 144.748C53.4483 136.518 56.2509 130.602 61.1808 128.392C66.3965 126.054 72.4406 127.698 75.5321 132.296C76.1842 133.266 77.0378 134.915 77.4289 135.961C78.1146 137.794 78.7213 138.466 79.1032 137.816C79.2036 137.644 79.0906 134.718 78.8521 131.312C78.5049 126.354 78.3042 125.097 77.8459 125.009C77.5185 124.946 77.0622 125.385 76.7798 126.035C76.5081 126.66 76.0358 127.269 75.7301 127.388C75.4241 127.507 73.8875 127.081 72.3151 126.442C69.4945 125.296 64.995 124.7 62.5831 125.152ZM83.1879 126.459C83.1879 127.073 83.4382 127.241 84.3517 127.241C85.7616 127.241 87.5871 128.144 87.9114 129.001C88.0415 129.346 88.1483 136.419 88.1483 144.719V159.81L87.2116 160.76C86.5259 161.457 85.8616 161.711 84.7314 161.711C83.4371 161.711 83.1879 161.837 83.1879 162.493C83.1879 163.257 83.3818 163.273 91.1055 163.171C97.8433 163.082 99.0231 162.98 99.0231 162.486C99.0231 162.082 98.4786 161.841 97.2343 161.696C96.2503 161.581 95.0914 161.162 94.6587 160.764C93.8891 160.058 93.8719 159.704 93.8719 144.653C93.8719 127.025 93.7258 127.806 97.1153 127.315C98.4275 127.124 99.0231 126.858 99.0231 126.462C99.0231 125.973 97.8135 125.87 91.1055 125.781C83.3818 125.679 83.1879 125.695 83.1879 126.459ZM101.018 126.184C100.698 127.028 101.044 127.241 102.729 127.241C103.792 127.241 104.473 127.509 105.145 128.192L106.082 129.142V144.406C106.082 159.262 106.061 159.697 105.291 160.691C104.655 161.512 104.179 161.711 102.852 161.711C101.319 161.711 100.385 162.383 101.021 163.029C101.319 163.331 116.569 163.331 116.867 163.029C117.503 162.383 116.569 161.711 115.036 161.711C113.709 161.711 113.233 161.512 112.597 160.691C111.863 159.745 111.806 159.165 111.806 152.751V145.832H113.499H115.192L121.396 154.546L127.599 163.26H140.435C147.494 163.26 153.373 163.156 153.498 163.029C154.105 162.412 153.208 161.711 151.813 161.711C150.726 161.711 150.051 161.448 149.373 160.76C148.443 159.817 148.437 159.754 148.437 152.341V144.871L155.317 151.839C159.102 155.671 162.297 159.201 162.419 159.683C162.7 160.797 162.023 161.631 160.714 161.785C160.113 161.856 159.693 162.144 159.693 162.486C159.693 162.983 160.982 163.082 168.594 163.171C176.714 163.266 177.484 163.218 177.37 162.632C177.293 162.234 176.582 161.818 175.501 161.54C172.276 160.71 170.069 158.957 161.869 150.713L153.742 142.542L160.533 135.737C167.19 129.065 169.589 127.241 171.708 127.241C172.224 127.241 172.476 126.984 172.476 126.458C172.476 125.696 172.281 125.677 165.703 125.78C159.983 125.869 158.93 125.976 158.93 126.466C158.93 126.836 159.371 127.091 160.142 127.167C160.808 127.232 161.557 127.535 161.806 127.839C162.794 129.048 161.74 130.526 155.4 136.827C151.917 140.288 148.925 143.12 148.752 143.12C148.39 143.12 148.327 130.602 148.681 129.259C148.961 128.197 150.634 127.241 152.211 127.241C153.468 127.241 153.881 126.874 153.44 126.149C153.224 125.795 151.227 125.701 145.552 125.78C138.913 125.872 137.938 125.964 137.835 126.511C137.744 126.993 138.125 127.183 139.494 127.339C140.596 127.466 141.582 127.858 142.088 128.371C142.893 129.188 142.904 129.397 142.904 144.002C142.904 152.145 142.781 159.242 142.632 159.775C142.236 161.185 141.076 161.735 138.402 161.78C135.555 161.827 132.69 160.708 130.974 158.878C130.338 158.199 127.842 154.866 125.428 151.47L121.039 145.294L123.108 144.441C126.1 143.206 127.787 141.744 128.823 139.486C130.625 135.558 129.532 130.82 126.271 128.422C123.391 126.305 121.754 126.023 111.008 125.796C102.458 125.615 101.214 125.664 101.018 126.184ZM177.818 126.459C177.818 127.115 178.067 127.241 179.361 127.241C180.491 127.241 181.156 127.495 181.841 128.192L182.778 129.142V144.406C182.778 159.262 182.757 159.697 181.987 160.691C181.346 161.519 180.877 161.711 179.507 161.711C178.072 161.711 177.818 161.828 177.818 162.486C177.818 163.246 178.072 163.26 192.063 163.26H206.308L207.745 158.545C208.535 155.952 209.269 153.599 209.375 153.317C209.498 152.994 209.281 152.803 208.791 152.803C208.325 152.803 207.906 153.144 207.747 153.653C207.104 155.711 205.143 158.281 203.442 159.295C201.755 160.302 201.376 160.362 195.887 160.493C190.425 160.622 190.063 160.585 189.304 159.815C188.517 159.016 188.502 158.72 188.502 144.695C188.502 136.157 188.655 129.982 188.881 129.378C189.324 128.193 191.288 127.241 193.287 127.241C194.391 127.241 194.637 127.107 194.534 126.563C194.417 125.946 193.66 125.876 186.112 125.781C178.011 125.679 177.818 125.695 177.818 126.459ZM211.65 125.95C210.946 126.665 211.546 127.157 213.332 127.331C216.732 127.663 216.547 126.675 216.547 144.476C216.547 162.234 216.716 161.306 213.408 161.693C212.088 161.847 211.561 162.089 211.468 162.582C211.348 163.218 212.225 163.26 225.618 163.26H239.895L241.352 158.903C242.153 156.507 242.885 154.328 242.978 154.062C243.076 153.783 242.837 153.578 242.414 153.578C241.952 153.578 241.354 154.167 240.8 155.168C240.316 156.042 239.4 157.359 238.765 158.092C236.738 160.436 235.866 160.696 229.465 160.865C221.564 161.073 222.031 161.634 222.167 152.117L222.271 144.863L225.323 144.74C229.497 144.572 232.976 144.986 233.92 145.765C234.351 146.121 234.923 147.284 235.19 148.349C235.489 149.544 235.885 150.286 236.223 150.286C236.673 150.286 236.789 149.126 236.875 143.798C236.974 137.65 236.942 137.311 236.256 137.311C235.705 137.311 235.473 137.686 235.284 138.886C235.144 139.776 234.632 140.872 234.108 141.404C233.21 142.315 233 142.346 227.621 142.346H222.063L222.166 135.278L222.271 128.209L226.337 128.097C228.573 128.035 231.748 128.155 233.393 128.362C236.848 128.797 237.807 129.568 238.532 132.491C238.846 133.754 239.148 134.212 239.667 134.212C240.322 134.212 240.359 133.933 240.162 130.436C240.045 128.36 239.884 126.442 239.803 126.176C239.689 125.8 236.548 125.692 225.78 125.692C218.149 125.692 211.79 125.808 211.65 125.95ZM119.434 129.121C121.537 130.267 122.952 132.331 123.163 134.563C123.429 137.367 122.995 139.078 121.613 140.676C120.02 142.517 117.753 143.501 114.465 143.781L111.806 144.007V136.431C111.806 130.733 111.924 128.806 112.283 128.659C112.545 128.552 113.964 128.45 115.437 128.434C117.361 128.411 118.485 128.605 119.434 129.121Z" fill="white"/>
</svg>
