<svg width="289" height="289" viewBox="0 0 289 289" fill="none" xmlns="http://www.w3.org/2000/svg">
<rect width="289" height="289" fill="white" fill-opacity="0.05"/>
<path opacity="0.6" fill-rule="evenodd" clip-rule="evenodd" d="M59 144.01V163.969H64.6825H70.365L70.5535 155.952L70.7421 147.936L76.9278 147.748L83.1135 147.561L83.3021 155.601L83.4906 163.642H89.1939H94.8972V144.01V124.378L89.0262 124.189L83.1551 124V131.224V138.448H76.7809H70.4066V131.249V124.051H64.7033H59V144.01ZM187.604 124.488C187.358 124.727 187.156 127.337 187.156 130.288V135.652L184.024 134.105C179.115 131.681 173.352 132.313 169.363 135.712C164.501 139.853 163.122 150.344 166.495 157.522C167.848 160.401 168.878 161.578 171.152 162.847C176.441 165.798 182.022 165.71 186.062 162.61C187.474 161.527 187.827 161.455 187.827 162.246C187.827 163.716 188.816 164.073 193.055 164.133L196.886 164.187L197.063 144.119L197.241 124.051H192.646C190.119 124.051 187.85 124.247 187.604 124.488ZM107.406 133.493C103.922 134.603 101.436 136.694 100.178 139.572C99.6726 140.73 99.2586 141.834 99.2586 142.026C99.2586 142.218 101.486 142.374 104.209 142.374C107.79 142.374 109.39 142.102 109.994 141.392C111.1 140.093 115.642 140.123 116.992 141.439C117.572 142.005 118.046 143.002 118.046 143.655C118.046 144.709 117.272 144.871 111.166 145.092C103.604 145.364 100.404 146.589 98.5842 149.905C97.3295 152.192 97.4349 157.295 98.7889 159.815C101.444 164.76 110.142 166.598 115.712 163.393C117.977 162.089 118.346 162.037 118.866 162.943C119.309 163.715 120.565 163.969 123.951 163.969H128.447L128.262 153.662C128.16 147.994 127.921 142.407 127.731 141.248C127.319 138.734 124.697 135.519 121.913 134.114C119.081 132.686 111.02 132.34 107.406 133.493ZM146.227 132.99C145.673 133.215 144.419 133.946 143.44 134.615C141.183 136.154 140.859 136.139 140.859 134.491C140.859 133.256 140.51 133.167 136.33 133.346L131.801 133.54L131.621 148.7L131.441 163.86L136.209 164.078C138.831 164.198 141.101 164.173 141.254 164.023C141.405 163.873 141.53 159.399 141.53 154.08C141.53 144.969 141.617 144.316 143.04 142.786C143.87 141.893 145.522 140.972 146.711 140.739C148.47 140.394 149.19 140.623 150.569 141.969C152.238 143.596 152.266 143.787 152.266 153.796V163.969H157.298H162.33V152.656C162.33 142.214 162.214 141.121 160.821 138.461C158.68 134.374 156.61 133.122 151.507 132.828C149.157 132.692 146.78 132.766 146.227 132.99ZM208.053 133.496C202.787 135.168 199.523 139.526 200.33 143.806C201.215 148.496 203.803 150.268 212.168 151.91C218.164 153.088 220.034 153.845 220.034 155.097C220.034 155.632 219.451 156.375 218.737 156.748C216.761 157.779 211.612 157.585 210.641 156.443C210.027 155.721 208.394 155.462 204.474 155.462C199.264 155.462 199.154 155.495 199.58 156.934C200.385 159.654 202.301 161.667 205.629 163.293C210.321 165.583 219.037 165.567 223.812 163.257C229.321 160.593 231.281 156.216 229.17 151.287C227.867 148.248 224.368 146.386 217.719 145.196C214.579 144.633 211.475 143.786 210.822 143.314C209.695 142.498 209.693 142.396 210.799 141.301C212.289 139.827 216.223 139.805 217.873 141.261C219.355 142.57 228.757 142.91 228.757 141.655C228.757 139.574 226.29 136.28 223.566 134.723C219.883 132.618 212.623 132.044 208.053 133.496ZM183.434 141.337C186.414 142.551 187.156 144.065 187.156 148.925C187.156 152.495 186.937 153.159 185.195 154.858C183.857 156.163 182.562 156.77 181.118 156.77C179.674 156.77 178.379 156.163 177.04 154.858C175.284 153.144 175.079 152.51 175.079 148.786C175.079 144.315 176.127 142.062 178.673 141.06C180.661 140.277 180.863 140.289 183.434 141.337ZM118.046 153.057C118.046 156.229 112.478 159.071 109.405 157.467C107.616 156.534 107.457 153.207 109.155 152.242C109.802 151.875 112.066 151.566 114.188 151.555C117.784 151.537 118.046 151.639 118.046 153.057Z" fill="white"/>
</svg>
