<svg width="135" height="142" viewBox="0 0 135 142" fill="none" xmlns="http://www.w3.org/2000/svg">
<g opacity="0.5">
<path d="M64.821 134.833C64.776 134.833 64.731 134.833 64.701 134.817L36.501 129.2C36.411 129.184 36.3211 129.153 36.2611 129.09L13.416 113.312C13.341 113.265 13.281 113.186 13.221 113.107L4.94105 100.311C4.82105 100.122 4.79105 99.9007 4.85105 99.6798L12.951 73.7412L15.141 52.883L3.08097 29.4056C2.99097 29.2321 2.97602 29.0112 3.03602 28.8219C3.09602 28.6325 3.24603 28.4747 3.42603 28.3958L23.436 19.7812L42.111 6.43318C42.291 6.30696 42.531 6.2754 42.726 6.35429L61.266 13.5174C61.371 13.5647 61.476 13.6278 61.551 13.7225L67.896 21.7061L107.571 20.0809C107.661 20.0809 107.766 20.0967 107.841 20.1283L132.501 30.2892C132.681 30.3681 132.816 30.5101 132.891 30.6994C132.966 30.8887 132.951 31.0938 132.861 31.2832L120.621 56.9536L108.696 79.9576L107.841 103.372C107.841 103.498 107.796 103.624 107.721 103.735L100.221 115.615C100.176 115.694 100.116 115.757 100.041 115.805L83.916 127.78C83.856 127.812 83.811 127.843 83.751 127.875L65.046 134.77C64.986 134.817 64.896 134.833 64.821 134.833ZM36.891 127.812L64.776 133.381L83.226 126.581L99.171 114.748L106.491 103.151L107.346 79.7683C107.346 79.6578 107.376 79.5474 107.436 79.4527L119.421 56.3225L131.316 31.3778L107.481 21.5641L67.611 23.1892C67.416 23.205 67.191 23.1103 67.056 22.9367L60.621 14.8269L42.576 7.85317L24.066 21.075L4.64103 29.453L16.446 52.4254C16.506 52.5516 16.536 52.6936 16.521 52.8514L14.271 74.0725L6.24604 99.8219L14.256 112.207L36.891 127.812Z" fill="white"/>
<path d="M64.821 134.833C64.461 134.833 64.161 134.533 64.146 134.154L63.216 116.404C63.216 116.341 63.216 116.294 63.231 116.231L69.036 83.3498L65.421 50.674C65.391 50.3743 65.541 50.0745 65.796 49.9483L86.046 39.6138L110.811 30.0683C110.886 30.0367 110.976 30.0367 111.051 30.0209L132.261 30.2892C132.636 30.2892 132.936 30.6205 132.936 31.015C132.936 31.4094 132.621 31.7249 132.246 31.7249C132.246 31.7249 132.246 31.7249 132.231 31.7249L111.141 31.4567L86.556 40.9392L66.816 51.0212L70.386 83.3025C70.386 83.3656 70.386 83.4445 70.386 83.5234L64.5809 116.436L65.511 134.107C65.526 134.501 65.2409 134.848 64.8659 134.864C64.8509 134.833 64.836 134.833 64.821 134.833Z" fill="white"/>
<path d="M66.0959 51.2894C66.0809 51.2894 66.066 51.2894 66.051 51.2894L42.3809 49.5854C42.2609 49.5696 42.1259 49.5223 42.0359 49.4591L24.4109 36.1901L3.50095 29.7685C3.14095 29.658 2.93095 29.2636 3.03595 28.8849C3.14095 28.5063 3.51595 28.2854 3.87595 28.3958L24.891 34.8647C24.966 34.8805 25.041 34.9278 25.101 34.9752L42.6659 48.1969L66.141 49.8852C66.516 49.9167 66.8009 50.2481 66.7709 50.6583C66.7559 51.0054 66.4559 51.2894 66.0959 51.2894Z" fill="white"/>
<path d="M99.666 115.962C99.336 115.962 99.051 115.71 98.991 115.363L94.206 85.3221C94.191 85.2274 94.191 85.1169 94.221 85.0223L101.856 55.2969L110.136 31.2674L85.956 26.3289L56.601 23.7572C56.436 23.7414 56.271 23.6625 56.166 23.5363L42.006 7.55338C41.751 7.26938 41.766 6.81182 42.036 6.5436C42.306 6.27538 42.741 6.29116 42.996 6.57516L56.976 22.3529L86.136 24.9089L111.171 30.0209C111.366 30.0683 111.531 30.1945 111.636 30.3681C111.741 30.5574 111.756 30.7625 111.681 30.9676L103.146 55.7229L95.571 85.2432L100.326 115.142C100.386 115.536 100.131 115.899 99.771 115.962C99.741 115.962 99.696 115.962 99.666 115.962Z" fill="white"/>
<path d="M83.541 127.938C83.526 127.938 83.526 127.938 83.5111 127.938C83.1361 127.922 82.836 127.591 82.866 127.18L83.916 102.031L84.891 70.9485L85.641 40.9707L64.326 42.0278C64.206 42.0278 64.086 42.0121 63.981 41.9489L43.311 30.8887L23.406 21.1065C23.061 20.933 22.911 20.5069 23.076 20.1598C23.241 19.7969 23.6461 19.6392 23.9761 19.8127L43.896 29.6107L64.431 40.6078L86.301 39.5192C86.496 39.535 86.676 39.5823 86.811 39.7243C86.946 39.8663 87.021 40.0556 87.021 40.2607L86.241 71.0116L85.266 102.11L84.216 127.259C84.201 127.638 83.901 127.938 83.541 127.938Z" fill="white"/>
<path d="M36.636 129.2C36.261 129.2 35.961 128.885 35.946 128.506L35.541 112.16C35.541 112.065 35.556 111.971 35.586 111.892L46.5809 81.8036L41.751 48.9858C41.706 48.6387 41.901 48.3074 42.216 48.197L63.981 40.6867L85.701 25.0352C85.776 24.9878 85.851 24.9405 85.941 24.9247L107.451 20.1441C107.826 20.0494 108.186 20.3176 108.261 20.6963C108.336 21.0907 108.096 21.4694 107.736 21.5483L86.361 26.2974L64.671 41.9332C64.611 41.9647 64.5659 41.9963 64.4909 42.0278L43.176 49.3803L47.931 81.7721C47.946 81.8983 47.931 82.0245 47.886 82.135L36.876 112.271L37.281 128.474C37.296 128.869 36.996 129.2 36.621 129.216C36.636 129.2 36.636 129.2 36.636 129.2Z" fill="white"/>
<path d="M13.7759 113.422C13.6709 113.422 13.566 113.391 13.461 113.343C13.131 113.154 12.996 112.728 13.176 112.381L23.646 91.2703L34.641 68.4241L24.066 35.7641C24.006 35.5747 24.021 35.3696 24.111 35.1803C24.201 35.0067 24.366 34.8805 24.546 34.8332L44.196 30.0367L56.301 22.4003C56.616 22.1952 57.051 22.3056 57.246 22.6527C57.441 22.9998 57.3359 23.4416 57.0059 23.6467L44.8109 31.3305C44.7509 31.3621 44.6909 31.3936 44.6159 31.4094L25.5959 36.0638L36.021 68.2347C36.081 68.4241 36.0659 68.6134 35.9909 68.7869L24.861 91.9172L14.376 113.044C14.256 113.28 14.0159 113.422 13.7759 113.422Z" fill="white"/>
<path d="M63.906 117.067C63.876 117.067 63.846 117.067 63.801 117.067L36.1259 112.854C35.9309 112.823 35.7509 112.696 35.6459 112.523L23.676 91.9803L13.0259 74.3723C12.8309 74.041 12.9209 73.5992 13.2359 73.3783C13.5509 73.1574 13.9709 73.2678 14.1809 73.5992L24.8309 91.2229L36.636 111.497L63.7409 115.631L84.0959 101.573L94.296 84.833C94.371 84.7067 94.4909 84.6121 94.6259 84.549L107.781 79.1372C108.126 78.9952 108.531 79.1687 108.666 79.5474C108.801 79.9103 108.636 80.3363 108.276 80.4783L95.3309 85.8112L85.1609 102.488C85.1159 102.567 85.0409 102.646 84.9659 102.693L64.266 116.972C64.161 117.035 64.026 117.067 63.906 117.067Z" fill="white"/>
<path d="M69.726 84.0756C69.711 84.0756 69.6959 84.0756 69.6809 84.0756L47.2409 82.5767C47.0609 82.5609 46.8959 82.4821 46.7759 82.3401L34.7159 68.4398L15.441 53.3089C15.141 53.0723 15.0809 52.6147 15.3059 52.2991C15.5309 51.9836 15.951 51.9205 16.266 52.1572L35.6309 67.3669L47.601 81.1409L69.516 82.6083L85.161 70.3805L102.066 54.9025C102.201 54.7763 102.381 54.7132 102.561 54.7289L120.066 55.9123C120.441 55.9438 120.726 56.2752 120.696 56.6696C120.666 57.064 120.336 57.3638 119.976 57.3323L102.756 56.1647L86.016 71.4849L70.1309 83.902C70.0109 84.0283 69.861 84.0756 69.726 84.0756Z" fill="white"/>
<path d="M50.1659 131.535C50.0609 131.535 49.9559 131.488 49.8959 131.393L37.7009 114.716L44.046 129.736C44.121 129.926 44.0459 130.131 43.8659 130.21C43.7009 130.289 43.4909 130.21 43.4159 130.021L35.9159 112.255C35.8409 112.081 35.901 111.892 36.051 111.797C36.201 111.703 36.3959 111.75 36.5009 111.892L50.4359 130.936C50.5559 131.093 50.5259 131.314 50.3759 131.44C50.3009 131.519 50.2409 131.535 50.1659 131.535Z" fill="white"/>
<path d="M61.6109 133.823C61.5359 133.823 61.4609 133.791 61.4009 133.744L40.926 116.53L55.6859 131.977C55.8209 132.119 55.8209 132.34 55.6859 132.482C55.5509 132.624 55.3409 132.624 55.2059 132.482L35.9909 112.381C35.8559 112.255 35.856 112.034 35.976 111.892C36.096 111.75 36.306 111.734 36.441 111.844L61.821 133.176C61.971 133.302 61.9859 133.523 61.8809 133.681C61.8059 133.776 61.7009 133.823 61.6109 133.823Z" fill="white"/>
<path d="M64.6859 131.756C64.6259 131.756 64.551 131.74 64.506 131.693L36.036 112.428C35.886 112.318 35.841 112.113 35.916 111.955C36.006 111.781 36.2009 111.718 36.3659 111.813L64.566 125.966C64.731 126.044 64.806 126.265 64.731 126.439C64.656 126.612 64.446 126.691 64.281 126.612L40.941 114.905L64.881 131.093C65.046 131.204 65.091 131.425 64.986 131.582C64.911 131.693 64.7909 131.756 64.6859 131.756Z" fill="white"/>
<path d="M64.146 121.406C64.116 121.406 64.086 121.406 64.041 121.39L36.111 112.476C35.931 112.412 35.826 112.223 35.886 112.034C35.946 111.844 36.126 111.734 36.306 111.797L64.236 120.712C64.416 120.775 64.521 120.964 64.461 121.153C64.431 121.295 64.296 121.406 64.146 121.406Z" fill="white"/>
<path d="M58.626 115.915C58.581 115.915 58.551 115.915 58.506 115.899C58.326 115.836 58.2361 115.631 58.2961 115.442L67.596 88.4618L54.516 115.063C54.426 115.237 54.216 115.316 54.051 115.221C53.886 115.126 53.811 114.905 53.901 114.732L69.396 83.2078C69.471 83.0343 69.666 82.9712 69.831 83.05C69.996 83.1289 70.0711 83.3183 70.0111 83.5076L58.911 115.694C58.896 115.821 58.761 115.915 58.626 115.915Z" fill="white"/>
<path d="M49.7309 114.558C49.6709 114.558 49.5959 114.542 49.5359 114.495C49.3859 114.385 49.3409 114.164 49.4459 113.99L66.246 88.0674L44.9459 113.659C44.8259 113.817 44.6009 113.832 44.4659 113.69C44.3309 113.564 44.3159 113.328 44.4359 113.186L69.4559 83.1131C69.5759 82.9711 69.771 82.9554 69.921 83.0658C70.056 83.1763 70.101 83.3971 69.996 83.5549L50.0009 114.385C49.9409 114.495 49.8359 114.558 49.7309 114.558Z" fill="white"/>
<path d="M39.6509 113.012C39.5609 113.012 39.4709 112.98 39.3959 112.902C39.2759 112.76 39.276 112.523 39.411 112.397L64.926 87.5467L37.7909 108.689C37.6409 108.799 37.4159 108.768 37.3109 108.61C37.1909 108.452 37.236 108.231 37.386 108.105L69.516 83.0816C69.666 82.9712 69.861 83.0027 69.981 83.1447C70.101 83.2867 70.0859 83.5076 69.9509 83.6338L39.876 112.933C39.816 112.981 39.7259 113.012 39.6509 113.012Z" fill="white"/>
<path d="M39.891 102.425C39.771 102.425 39.6659 102.362 39.5909 102.252C39.5009 102.078 39.546 101.857 39.711 101.762L65.586 85.5271L42.546 95.4829C42.366 95.546 42.1709 95.4671 42.0959 95.2936C42.0209 95.1043 42.1109 94.8991 42.2759 94.8203L69.5759 83.0185C69.7409 82.9554 69.936 83.0185 70.011 83.192C70.086 83.3656 70.0409 83.5707 69.8759 83.6654L40.0559 102.378C40.0109 102.409 39.951 102.425 39.891 102.425Z" fill="white"/>
<path d="M44.2261 90.5603C44.0761 90.5603 43.941 90.4498 43.896 90.2921C43.851 90.1027 43.9561 89.8976 44.1361 89.8503L65.361 84.1545L45.876 86.111C45.696 86.1583 45.516 85.9847 45.501 85.7796C45.486 85.5745 45.621 85.4009 45.801 85.3852L69.666 82.9869C69.846 82.9712 70.011 83.0974 70.041 83.2867C70.071 83.4761 69.966 83.6496 69.786 83.697L44.301 90.5445C44.286 90.5603 44.2561 90.5603 44.2261 90.5603Z" fill="white"/>
<path d="M94.881 85.5587C94.776 85.5587 94.671 85.5114 94.611 85.4167C94.506 85.2747 94.521 85.0538 94.656 84.9276L114.396 66.7989C114.531 66.6727 114.756 66.6885 114.876 66.8305C114.996 66.9725 114.981 67.2092 114.846 67.3354L99.051 81.851L110.931 73.5361C111.081 73.4256 111.306 73.4729 111.411 73.6307C111.516 73.7885 111.471 74.0252 111.321 74.1356L95.091 85.4956C95.016 85.5272 94.941 85.5587 94.881 85.5587Z" fill="white"/>
<path d="M94.881 85.5587C94.806 85.5587 94.7311 85.5272 94.6711 85.4798C94.5361 85.3536 94.506 85.1485 94.611 84.9907L113.976 56.0543C114.081 55.8807 114.291 55.8492 114.456 55.9596C114.606 56.0701 114.651 56.2909 114.546 56.4645L98.121 81.0147L119.796 56.4014C119.931 56.2594 120.141 56.2436 120.276 56.3856C120.411 56.5118 120.426 56.7485 120.291 56.8905L95.151 85.4325C95.061 85.5114 94.971 85.5587 94.881 85.5587Z" fill="white"/>
<path d="M94.881 85.5587C94.836 85.5587 94.776 85.5429 94.731 85.5272C94.566 85.4483 94.491 85.2274 94.566 85.0538L107.721 55.6914C107.796 55.5178 108.006 55.439 108.171 55.5178C108.336 55.5967 108.411 55.8176 108.336 55.9912L95.181 85.3536C95.136 85.4798 95.001 85.5587 94.881 85.5587Z" fill="white"/>
</g>
</svg>
