<svg width="135" height="142" viewBox="0 0 135 142" fill="none" xmlns="http://www.w3.org/2000/svg">
<g opacity="0.5">
<path d="M83.3946 136.56C83.3496 136.56 83.3196 136.56 83.2746 136.544L46.0296 129.649C45.8646 129.618 45.7146 129.523 45.6096 129.381L25.4346 101.438L1.58458 56.1878C1.49458 56.0143 1.47957 55.8249 1.52457 55.6356L9.45958 26.431C9.50458 26.2574 9.60958 26.1154 9.74458 26.0207L38.7246 6.42471C38.8446 6.34582 38.9796 6.29853 39.0996 6.3143L90.6696 7.40297C90.7296 7.40297 90.7896 7.41873 90.8496 7.43451L122.245 17.4061C122.47 17.4692 122.635 17.6585 122.71 17.8952L132.025 52.3696C132.07 52.5432 132.055 52.7325 131.98 52.8903L114.91 88.0747L94.0146 124.585L83.9346 136.307C83.7696 136.481 83.5896 136.56 83.3946 136.56ZM46.5246 128.292L83.1396 135.061L92.8896 123.748L113.68 87.3963L130.615 52.4958L121.48 18.6841L90.5346 8.8545L39.2646 7.76583L10.6746 27.0936L2.88957 55.7619L26.5596 100.665L46.5246 128.292Z" fill="white"/>
<path d="M36.3096 48.9459C36.1596 48.9459 36.0096 48.8985 35.8896 48.7881L9.66958 27.2041C9.36958 26.9516 9.3246 26.5098 9.5496 26.1943C9.7896 25.8787 10.2096 25.8314 10.5096 26.0681L36.4896 47.4628L81.4746 39.6054L89.9796 7.93944C90.0846 7.56077 90.4596 7.33989 90.8196 7.45033C91.1796 7.56078 91.3896 7.95522 91.2846 8.33388L82.6746 40.4416C82.5996 40.7098 82.3896 40.915 82.1346 40.9623L36.4296 48.9459C36.3846 48.9459 36.3396 48.9459 36.3096 48.9459Z" fill="white"/>
<path d="M114.265 88.485C114.055 88.485 113.845 88.3745 113.71 88.1852L81.4596 40.6625C81.2346 40.347 81.3096 39.8894 81.6246 39.6685C81.9246 39.4318 82.3596 39.5108 82.5696 39.8421L114.82 87.3647C115.045 87.6961 114.97 88.1379 114.655 88.3587C114.535 88.4534 114.4 88.485 114.265 88.485Z" fill="white"/>
<path d="M93.3996 124.947C93.2796 124.947 93.1596 124.916 93.0546 124.853L57.0096 102.717C56.8746 102.638 56.7846 102.511 56.7246 102.369L35.6796 48.4883C35.5296 48.1254 35.7096 47.6994 36.0546 47.5574C36.3996 47.3996 36.8046 47.589 36.9396 47.9519L57.8946 101.596L93.7446 123.606C94.0746 123.811 94.1796 124.253 93.9846 124.585C93.8646 124.821 93.6246 124.947 93.3996 124.947Z" fill="white"/>
<path d="M57.3546 102.827H57.3396L25.9446 101.738C25.5696 101.723 25.2696 101.391 25.2846 100.997C25.2996 100.602 25.5996 100.302 25.9896 100.302L57.3846 101.391C57.7596 101.407 58.0596 101.738 58.0446 102.133C58.0146 102.511 57.7146 102.827 57.3546 102.827Z" fill="white"/>
<path d="M98.1396 36.4341H98.1246L47.3346 33.7203C47.1996 33.7203 47.0796 33.6099 47.0346 33.4679L38.7546 7.1663C38.6946 6.97697 38.7996 6.77189 38.9646 6.70878C39.1446 6.64567 39.3396 6.74031 39.3996 6.92964L47.6046 32.9946L98.0496 35.6925L121.84 17.8006C121.99 17.6901 122.2 17.7216 122.32 17.8794C122.425 18.0372 122.395 18.2739 122.245 18.3843L98.3646 36.3394C98.2746 36.4026 98.2146 36.4341 98.1396 36.4341Z" fill="white"/>
<path d="M17.8596 73.0385C17.7696 73.0385 17.6796 73.007 17.6196 72.9281L1.9296 56.0932C1.7946 55.9512 1.7946 55.7303 1.9296 55.5883C2.0646 55.4463 2.27457 55.4463 2.40957 55.5883L17.8296 72.1392L47.0796 33.1208C47.1996 32.963 47.4096 32.9314 47.5596 33.0576C47.7096 33.1839 47.7396 33.4048 47.6196 33.5625L18.1296 72.8965C18.0696 72.9754 17.9796 73.0227 17.8746 73.0385C17.8596 73.0385 17.8596 73.0385 17.8596 73.0385Z" fill="white"/>
<path d="M46.1346 129.302C45.9996 129.302 45.8796 129.223 45.8196 129.081L36.8496 106.582L17.5596 72.8649C17.4696 72.6914 17.5146 72.4705 17.6796 72.3758C17.8446 72.2812 18.0546 72.3285 18.1446 72.502L37.4646 106.266L46.4496 128.813C46.5246 129.002 46.4346 129.207 46.2696 129.286C46.2246 129.302 46.1796 129.302 46.1346 129.302Z" fill="white"/>
<path d="M101.5 96.1057C101.455 96.1057 101.425 96.1056 101.38 96.0741L74.9946 85.3767C74.9046 85.3452 74.8296 85.2663 74.7996 85.1716C74.7696 85.077 74.7696 84.9665 74.8146 84.8876L97.8396 35.9134C97.9296 35.7398 98.1246 35.661 98.2896 35.7557C98.4546 35.8503 98.5296 36.0554 98.4396 36.229L75.5796 84.8561L101.38 95.3168L131.065 52.3697C131.17 52.2119 131.395 52.1645 131.545 52.2907C131.695 52.4012 131.725 52.6379 131.62 52.7956L101.785 95.9636C101.71 96.0583 101.605 96.1057 101.5 96.1057Z" fill="white"/>
<path d="M83.3946 136.197C83.3496 136.197 83.2896 136.181 83.2446 136.165C83.0796 136.086 83.0046 135.866 83.0796 135.692L101.185 95.6007C101.26 95.4272 101.47 95.3483 101.635 95.4271C101.8 95.506 101.875 95.727 101.8 95.9005L83.6946 135.992C83.6496 136.134 83.5146 136.197 83.3946 136.197Z" fill="white"/>
<path d="M37.1646 106.819C37.0446 106.819 36.9246 106.756 36.8646 106.629C36.7746 106.456 36.8346 106.235 36.9996 106.14L74.9346 84.7298C75.0996 84.6352 75.3096 84.6983 75.3996 84.8718C75.4896 85.0454 75.4296 85.2663 75.2646 85.361L37.3296 106.771C37.2846 106.803 37.2246 106.819 37.1646 106.819Z" fill="white"/>
</g>
</svg>
