<svg width="135" height="142" viewBox="0 0 135 142" fill="none" xmlns="http://www.w3.org/2000/svg">
<g opacity="0.5">
<path d="M69.6552 137.35C69.4752 137.35 69.2952 137.271 69.1752 137.129C68.9652 136.908 68.9203 136.577 69.0553 136.293L97.5102 77.6471C97.5702 77.5051 97.6752 77.3946 97.8102 77.3315L125.095 62.9106C125.29 62.8002 125.515 62.816 125.71 62.9106C125.905 63.0211 126.04 63.2104 126.07 63.4313L132.67 104.106C132.715 104.422 132.565 104.738 132.295 104.864L69.9552 137.24C69.8652 137.319 69.7602 137.35 69.6552 137.35ZM98.6202 78.5306L71.2002 135.031L131.245 103.838L124.885 64.6462L98.6202 78.5306Z" fill="white"/>
<path d="M39.5203 123.34C39.3853 123.34 39.2503 123.292 39.1303 123.213L3.29523 96.6751C3.07023 96.5173 2.96523 96.2333 3.01023 95.9493L17.5002 14.3151C17.5452 14.0626 17.7253 13.8417 17.9653 13.7628C18.2053 13.684 18.4602 13.7471 18.6552 13.9364L68.6803 64.6777C68.9053 64.8986 68.9502 65.2457 68.8152 65.5297L40.1202 122.945C40.0302 123.134 39.8652 123.261 39.6702 123.308C39.6252 123.324 39.5653 123.34 39.5203 123.34ZM4.43525 95.76L39.2652 121.557L67.3453 65.3404L18.5953 15.8928L4.43525 95.76Z" fill="white"/>
<path d="M98.1103 78.7042C98.0053 78.7042 97.8852 78.6726 97.7802 78.6095L79.7652 68.1962L68.0652 65.9084C67.6902 65.8295 67.4503 65.4666 67.5253 65.0722C67.6003 64.6777 67.9602 64.4095 68.3202 64.5042L80.1252 66.8235C80.2002 66.8393 80.2602 66.8708 80.3352 66.9024L98.4402 77.3788C98.7702 77.5682 98.8902 78.0099 98.7102 78.3571C98.5902 78.5779 98.3503 78.7042 98.1103 78.7042Z" fill="white"/>
<path d="M69.6552 137.35C69.4902 137.35 69.3403 137.287 69.2053 137.177L52.9903 122.535L39.5502 123.34C39.1452 123.387 38.8603 123.055 38.8303 122.661C38.8153 122.267 39.1003 121.919 39.4753 121.904L53.1853 121.083C53.3353 121.067 53.5303 121.131 53.6653 121.257L70.0903 136.088C70.3753 136.34 70.4053 136.798 70.1653 137.098C70.0303 137.271 69.8502 137.35 69.6552 137.35Z" fill="white"/>
<path d="M53.2302 122.519C53.1252 122.519 53.0203 122.487 52.9153 122.44C52.5853 122.251 52.4503 121.825 52.6303 121.478L79.4052 67.1864C79.4802 67.0444 79.6002 66.9182 79.7502 66.8551L106.135 55.0217C106.48 54.864 106.885 55.0375 107.035 55.4004C107.185 55.7633 107.02 56.1893 106.675 56.3471L80.5152 68.0857L53.8603 122.14C53.7103 122.377 53.4702 122.519 53.2302 122.519Z" fill="white"/>
<path d="M125.41 64.2833C125.32 64.2833 125.245 64.2675 125.155 64.2359L106.135 56.3471C106.075 56.3155 106.03 56.284 105.97 56.2524L42.8203 6.42617L30.9553 19.4428C30.7753 19.6479 30.4903 19.7268 30.2353 19.6164L17.9503 15.1197C17.5903 14.9935 17.4103 14.5833 17.5303 14.2046C17.6503 13.8259 18.0403 13.6208 18.4003 13.7628L30.2803 18.1017L42.2653 4.95884C42.5053 4.69062 42.8953 4.65906 43.1653 4.87995L106.735 55.0217L125.665 62.8791C126.01 63.0211 126.19 63.4471 126.055 63.81C125.935 64.1097 125.68 64.2833 125.41 64.2833Z" fill="white"/>
<path d="M80.0053 68.2277C79.8403 68.2277 79.6753 68.1646 79.5403 68.0384L29.9952 19.4586C29.7252 19.1904 29.7103 18.7328 29.9653 18.4488C30.2203 18.1648 30.6552 18.1333 30.9252 18.4173L80.4703 66.9971C80.7403 67.2653 80.7552 67.7228 80.5002 68.0068C80.3652 68.1646 80.1853 68.2277 80.0053 68.2277Z" fill="white"/>
<path d="M45.2053 122.645C45.1453 122.645 45.0703 122.629 45.0103 122.582C44.8603 122.472 44.8153 122.251 44.9203 122.077L75.8202 73.4344L44.1402 114.078C44.0202 114.236 43.8102 114.251 43.6602 114.125C43.5102 113.999 43.4953 113.778 43.6153 113.62L79.7203 67.2811C79.8403 67.1391 80.0353 67.1075 80.1853 67.2179C80.3353 67.3284 80.3653 67.5493 80.2603 67.7071L45.4753 122.472C45.4303 122.582 45.3253 122.645 45.2053 122.645Z" fill="white"/>
<path d="M49.9903 122.345C49.9303 122.345 49.8703 122.33 49.8253 122.298C49.6603 122.203 49.6003 121.983 49.7053 121.809L78.5653 69.4268L54.8353 92.7148C54.7003 92.8568 54.4753 92.8411 54.3553 92.6991C54.2203 92.5571 54.2353 92.3204 54.3703 92.1942L79.7803 67.2653C79.9003 67.1391 80.0953 67.1391 80.2303 67.2495C80.3653 67.36 80.3953 67.5493 80.3203 67.7071L50.3203 122.188C50.2303 122.282 50.1103 122.345 49.9903 122.345Z" fill="white"/>
<path d="M61.9452 78.0731C61.8252 78.0731 61.7053 78.01 61.6453 77.8837C61.5553 77.7102 61.6152 77.4893 61.7802 77.3946L77.7703 68.3697L65.5302 71.0362C65.3352 71.0835 65.1702 70.9573 65.1252 70.7522C65.0802 70.5628 65.2003 70.3735 65.3953 70.3262L79.9452 67.1548C80.1102 67.1233 80.2752 67.2179 80.3352 67.3757C80.3952 67.5493 80.3202 67.7386 80.1702 67.8175L62.1103 78.01C62.0503 78.0573 62.0052 78.0731 61.9452 78.0731Z" fill="white"/>
<path d="M124.885 108.303C124.81 108.303 124.75 108.287 124.69 108.24L94.1952 85.962C94.0452 85.8515 94.0003 85.6464 94.0903 85.4886C94.1803 85.3308 94.3752 85.2677 94.5252 85.3466L132.145 103.933C132.31 104.012 132.385 104.233 132.31 104.406C132.235 104.58 132.025 104.659 131.86 104.58L97.9152 87.808L125.08 107.656C125.23 107.767 125.275 107.988 125.17 108.161C125.095 108.256 124.99 108.303 124.885 108.303Z" fill="white"/>
<path d="M111.04 115.498C110.92 115.498 110.815 115.435 110.74 115.324L94.0753 85.8673C93.9853 85.7095 94.0153 85.5044 94.1653 85.3939C94.3003 85.2835 94.4953 85.2993 94.6153 85.4255L118.33 110.875C118.465 111.017 118.465 111.238 118.33 111.38C118.195 111.522 117.985 111.522 117.85 111.38L96.1303 88.0604L111.34 114.946C111.43 115.119 111.385 115.34 111.22 115.435C111.16 115.482 111.1 115.498 111.04 115.498Z" fill="white"/>
<path d="M98.6952 121.904C98.5302 121.904 98.3802 121.778 98.3502 121.588L94.0302 85.7095C94.0152 85.5202 94.1202 85.3624 94.2852 85.3151C94.4652 85.2677 94.6302 85.3782 94.6902 85.5517L105.07 118.275C105.13 118.464 105.04 118.669 104.86 118.732C104.68 118.795 104.485 118.685 104.425 118.511L95.1402 89.2437L99.0252 121.509C99.0552 121.699 98.9202 121.888 98.7252 121.904C98.7252 121.904 98.7102 121.904 98.6952 121.904Z" fill="white"/>
<path d="M86.8003 128.089C86.7853 128.089 86.7553 128.089 86.7403 128.089C86.5603 128.057 86.4253 127.868 86.4703 127.663L94.0603 85.5991C94.0903 85.4097 94.2253 85.2835 94.4353 85.3151C94.6153 85.3308 94.7503 85.4886 94.7353 85.678L93.7903 124.286C93.7903 124.491 93.5952 124.665 93.4452 124.633C93.2502 124.633 93.1153 124.46 93.1153 124.27L93.9553 90.0957L87.1453 127.805C87.1003 127.962 86.9653 128.089 86.8003 128.089Z" fill="white"/>
<path d="M74.5303 134.463C74.4853 134.463 74.4403 134.447 74.3953 134.431C74.2153 134.352 74.1403 134.147 74.2153 133.958L94.0753 85.5359C94.1503 85.3624 94.3303 85.2677 94.5103 85.3466C94.6753 85.4097 94.7653 85.6148 94.7203 85.7884L80.6203 131.228C80.5603 131.418 80.3653 131.512 80.1853 131.465C80.0053 131.402 79.9153 131.197 79.9603 131.008L91.7502 93.0146L74.8453 134.258C74.7853 134.368 74.6653 134.463 74.5303 134.463Z" fill="white"/>
<path d="M128.515 102.892C128.395 102.892 128.275 102.828 128.215 102.702L112.21 70.5628C112.12 70.3893 112.18 70.1684 112.36 70.0737C112.525 69.9791 112.735 70.0422 112.825 70.2315L127.24 99.1679L118.345 67.2495C118.285 67.0602 118.39 66.8551 118.57 66.8077C118.75 66.7604 118.945 66.8551 118.99 67.0602L128.845 102.45C128.89 102.623 128.8 102.813 128.65 102.876C128.605 102.876 128.56 102.892 128.515 102.892Z" fill="white"/>
<path d="M128.515 102.892C128.335 102.892 128.2 102.75 128.17 102.576L123.82 64.2675C123.79 64.0624 123.925 63.8888 124.12 63.8731C124.345 63.8731 124.48 63.9835 124.495 64.1886L128.59 100.272L129.91 93.409C129.94 93.2197 130.135 93.0777 130.315 93.125C130.495 93.1566 130.615 93.3459 130.585 93.5511L128.845 102.607C128.815 102.765 128.68 102.892 128.515 102.892Z" fill="white"/>
<path d="M128.515 102.892C128.44 102.892 128.35 102.86 128.29 102.797L100.6 76.8266C100.465 76.7004 100.45 76.4637 100.57 76.3217C100.69 76.1797 100.915 76.1639 101.05 76.2902L125.98 99.6728L106.735 73.5133C106.615 73.3555 106.645 73.1346 106.795 73.0084C106.945 72.8822 107.155 72.9137 107.275 73.0715L128.785 102.308C128.89 102.45 128.875 102.671 128.755 102.797C128.68 102.86 128.605 102.892 128.515 102.892Z" fill="white"/>
<path d="M128.11 102.513C128.05 102.513 127.99 102.497 127.93 102.45L96.4153 81.4022C96.2503 81.2917 96.2053 81.0708 96.3103 80.913C96.4153 80.7395 96.6253 80.6922 96.7753 80.8026L128.29 101.85C128.455 101.961 128.5 102.181 128.395 102.339C128.335 102.45 128.23 102.513 128.11 102.513Z" fill="white"/>
</g>
</svg>
