<svg width="167" height="176" viewBox="0 0 167 176" fill="none" xmlns="http://www.w3.org/2000/svg">
<g opacity="0.5">
<path d="M88.4356 105.111C88.0831 105.111 87.7676 104.896 87.6377 104.525C87.6006 104.427 87.5634 104.329 87.5263 104.231C87.2851 103.606 87.0439 103.019 86.8027 102.452C85.7265 99.9683 84.4461 97.5825 82.9617 95.3532C82.7019 94.9425 82.7947 94.395 83.1658 94.1212C83.5555 93.8474 84.075 93.9452 84.3348 94.3363C85.8749 96.6634 87.2295 99.1274 88.3243 101.709C88.5841 102.295 88.8438 102.921 89.0664 103.547C89.1036 103.645 89.1593 103.782 89.2149 103.938C89.3819 104.407 89.1407 104.916 88.7139 105.072C88.6397 105.092 88.5284 105.111 88.4356 105.111Z" fill="white"/>
<path d="M48.0216 167.767C23.5839 167.767 3.71094 146.823 3.71094 121.069C3.71094 96.8003 20.9676 76.8145 43.8652 74.5852C43.8837 74.5852 43.9022 74.5852 43.9208 74.5852C43.9765 74.5852 44.0322 74.5656 44.0878 74.5656C44.5517 74.5656 44.9229 74.9567 44.9229 75.4652C44.9229 75.9345 44.5703 76.3256 44.1436 76.3452C44.125 76.3452 44.125 76.3452 44.1064 76.3452C44.0879 76.3452 44.0508 76.3452 44.0322 76.3452C22.0068 78.4768 5.38098 97.6999 5.38098 121.069C5.38098 145.846 24.4932 165.988 48.003 165.988C61.8826 165.988 74.9457 158.811 82.9246 146.823C82.9617 146.784 82.9988 146.726 83.0359 146.687C83.4998 146.198 84.4833 146.569 84.4833 147.312C84.4833 147.488 84.4277 147.645 84.3534 147.782C84.3349 147.821 84.2978 147.879 84.2607 147.919C75.9849 160.336 62.4393 167.767 48.0216 167.767Z" fill="white"/>
<path d="M119.275 167.767C104.857 167.767 91.3117 160.336 83.0174 147.899C82.9988 147.86 82.9617 147.84 82.9432 147.801C82.8504 147.664 82.7947 147.488 82.7947 147.293C82.7947 146.55 83.7782 146.178 84.2235 146.667C84.2606 146.706 84.2977 146.765 84.3349 146.804C92.3137 158.811 105.358 165.968 119.256 165.968C142.748 165.968 161.878 145.826 161.878 121.049C161.878 97.6803 145.253 78.4376 123.19 76.3256C123.172 76.3256 123.153 76.3256 123.116 76.3256C122.763 76.3256 122.448 76.091 122.318 75.739C122.17 75.2696 122.392 74.7612 122.838 74.6047C122.968 74.5656 123.153 74.5461 123.302 74.5656C123.357 74.5656 123.394 74.5656 123.431 74.5852C146.329 76.8341 163.586 96.8003 163.586 121.069C163.586 146.823 143.713 167.767 119.275 167.767Z" fill="white"/>
<path d="M78.861 104.974C78.7867 104.974 78.7125 104.955 78.6383 104.935C78.2115 104.779 77.9332 104.388 78.0817 103.938C78.1188 103.821 78.1744 103.703 78.2116 103.586C78.4157 102.999 78.694 102.354 78.9723 101.689C80.0856 99.1274 81.4217 96.6438 82.9618 94.3363C83.2401 93.9256 83.7597 93.8474 84.1308 94.1212C84.5019 94.395 84.5946 94.9621 84.3349 95.3532C82.8504 97.5825 81.5701 99.9683 80.4939 102.432C80.2155 103.058 79.9743 103.664 79.7331 104.29C79.6032 104.681 79.2321 104.974 78.861 104.974Z" fill="white"/>
<path d="M123.172 76.443C123.042 76.443 122.93 76.4234 122.819 76.3648C122.392 76.1497 122.225 75.6412 122.411 75.1914L122.429 75.1719C122.448 75.0545 122.485 74.9959 122.522 74.9372C125.009 69.1292 126.27 62.9301 126.27 56.4768C126.27 31.6999 107.158 11.5576 83.6483 11.5576C60.1384 11.5576 41.0261 31.6999 41.0261 56.4768C41.0261 62.9105 42.2879 69.1096 44.7744 74.9176C44.7929 74.9567 44.8116 74.9958 44.8301 75.035C45.0157 75.3674 44.96 75.8172 44.6816 76.091C44.3476 76.443 43.8095 76.443 43.4941 76.091C43.4384 76.0323 43.3827 75.9541 43.3456 75.8759C43.327 75.8368 43.2528 75.6999 43.2343 75.6607C40.6365 69.5985 39.3376 63.1452 39.3376 56.4768C39.3376 30.7221 59.2106 9.77808 83.6483 9.77808C108.086 9.77808 127.959 30.7221 127.959 56.4768C127.959 63.2234 126.623 69.7159 124.007 75.7977C124.007 75.8172 123.988 75.8368 123.988 75.8563C123.97 75.8954 123.969 75.9345 123.951 75.9541C123.784 76.2474 123.487 76.443 123.172 76.443ZM44.8857 75.1523C44.9043 75.2305 44.9229 75.3283 44.9229 75.4065C44.9229 75.3087 44.9043 75.2305 44.8857 75.1523Z" fill="white"/>
<path d="M90.4581 102.589C90.2355 102.589 90.0314 102.511 89.8644 102.335C89.5304 101.983 89.5304 101.415 89.8644 101.083C90.1984 100.731 90.7365 100.731 91.0705 101.083C91.4045 101.435 91.4045 101.983 91.0705 102.335C90.885 102.511 90.6623 102.589 90.4581 102.589Z" fill="white"/>
<path d="M83.6483 103.136C82.2937 103.136 80.9576 103.078 79.6588 102.941C79.2134 102.902 78.7681 102.863 78.3042 102.804C77.8404 102.745 77.5063 102.315 77.562 101.826C77.6176 101.337 78.0259 101.005 78.4898 101.044C78.9165 101.103 79.3433 101.142 79.7887 101.181C82.3122 101.435 84.9843 101.435 87.4893 101.181C87.9532 101.142 88.3614 101.494 88.417 101.983C88.4542 102.471 88.1201 102.902 87.6562 102.96C86.3573 103.078 85.0028 103.136 83.6483 103.136Z" fill="white"/>
<path d="M83.6483 115.535C83.4627 115.535 83.2957 115.476 83.1287 115.359C82.7576 115.065 82.6834 114.498 82.9803 114.107C84.2421 112.386 85.2997 110.509 86.1347 108.553C86.7656 107.047 87.2667 105.522 87.6192 104.016C87.6749 103.821 87.712 103.625 87.7491 103.43C87.8604 102.882 87.9717 102.354 88.046 101.807C88.2872 100.301 88.4171 98.7363 88.4171 97.1523C88.4171 96.5265 88.3985 95.9203 88.3614 95.2945C88.2871 94.0039 88.1201 92.7523 87.8975 91.5594C87.749 90.7968 87.5821 90.0536 87.378 89.3301C86.4688 86.0252 84.9843 82.955 82.9803 80.1977C79.9558 76.0519 75.9291 72.8839 71.3088 71.0457C68.3214 69.8528 65.1855 69.2661 61.9754 69.2661C55.6294 69.2661 49.4689 71.6714 44.663 76.0714C44.6445 76.091 44.6074 76.1301 44.5889 76.1496C44.2549 76.5016 43.7167 76.5016 43.3827 76.1496C43.0487 75.7976 43.0487 75.2501 43.3827 74.8981C43.4198 74.859 43.5127 74.7807 43.5683 74.7416C48.801 70.0287 55.2769 67.5061 61.994 67.5061C65.4082 67.5061 68.7482 68.1514 71.9212 69.4029C76.8384 71.3585 81.1247 74.7221 84.3348 79.1416C86.4687 82.075 88.046 85.3407 89.0109 88.8607C89.2335 89.643 89.4191 90.4252 89.5675 91.227C89.8087 92.4981 89.9758 93.8278 90.0686 95.1967C90.1057 95.8421 90.1242 96.507 90.1242 97.1719C90.1242 98.8536 89.9942 100.516 89.7345 102.1C89.6602 102.667 89.5304 103.254 89.419 103.821C89.3819 104.036 89.3262 104.251 89.2706 104.466C88.8995 106.05 88.3614 107.693 87.6934 109.277C86.8027 111.369 85.6708 113.364 84.3348 115.183C84.1493 115.398 83.9081 115.535 83.6483 115.535Z" fill="white"/>
<path d="M83.6483 148.212C83.1844 148.212 82.7947 147.821 82.7947 147.312V114.928C81.5144 113.149 80.4382 111.213 79.5846 109.179C78.9352 107.654 78.4156 106.05 78.0259 104.427C77.9888 104.329 77.9517 104.153 77.9146 103.977C77.7661 103.391 77.6363 102.726 77.5436 102.061C77.2838 100.496 77.1539 98.8341 77.1539 97.1523C77.1539 96.4874 77.1724 95.8225 77.2095 95.1772C77.3022 93.7888 77.4693 92.459 77.7105 91.2074C77.8775 90.4057 78.0445 89.6039 78.2672 88.8217C79.232 85.3017 80.8093 82.0359 82.9432 79.1025C86.1162 74.7417 90.3468 71.3976 95.1898 69.4225C98.4185 68.1123 101.814 67.467 105.284 67.467C112.001 67.467 118.514 70.0092 123.617 74.6243C123.71 74.683 123.821 74.8003 123.877 74.8981C124.192 75.2697 124.155 75.8172 123.803 76.1496C123.45 76.4821 122.912 76.443 122.615 76.0714C117.735 71.6518 111.611 69.2661 105.284 69.2661C102.018 69.2661 98.8267 69.8919 95.7836 71.1043C91.2375 72.9426 87.248 76.091 84.2791 80.1977C82.2751 82.955 80.7907 86.0252 79.8815 89.3301C79.6774 90.0732 79.5104 90.8163 79.362 91.5594C79.1393 92.7328 78.9723 94.0039 78.8795 95.2945C78.8424 95.9008 78.8239 96.5265 78.8239 97.1523C78.8239 98.7363 78.9537 100.281 79.1949 101.787C79.2877 102.413 79.4176 103.019 79.5475 103.606C79.566 103.743 79.5847 103.84 79.6218 103.938C80.0114 105.542 80.4939 107.047 81.1062 108.475C81.9412 110.47 82.9988 112.347 84.2791 114.107C84.3905 114.263 84.4462 114.459 84.4462 114.655V147.332C84.4833 147.801 84.1122 148.212 83.6483 148.212Z" fill="white"/>
<path d="M83.6669 148.212C83.203 148.212 82.8133 147.821 82.8133 147.312C82.8133 146.902 83.0731 146.55 83.4256 146.452C92.4808 143.343 99.2721 135.325 101.165 125.508C101.517 123.709 101.703 121.831 101.703 119.935C101.703 116.747 101.202 113.638 100.2 110.646C99.0308 107.126 97.2124 103.938 94.8002 101.142C94.1137 100.34 93.3714 99.5772 92.5735 98.8537C92.221 98.5212 92.1839 97.9736 92.4993 97.6021C92.8148 97.2305 93.3528 97.1914 93.6868 97.5238C94.5218 98.2865 95.3197 99.1079 96.0434 99.9488C98.6041 102.902 100.534 106.304 101.777 110.059C102.835 113.227 103.373 116.551 103.373 119.935C103.373 121.949 103.187 123.943 102.798 125.879C100.794 136.283 93.5941 144.809 84.0009 148.134C83.9081 148.192 83.7968 148.212 83.6669 148.212Z" fill="white"/>
<path d="M83.6483 93.4563C83.5555 93.4563 83.4813 93.4368 83.3885 93.4172C82.7205 93.1825 82.0526 92.9869 81.366 92.8109C80.4383 92.5763 79.4734 92.4003 78.4528 92.2634C75.9478 91.9505 73.3129 92.0092 70.9192 92.4199C70.4739 92.5176 70.0285 92.1852 69.9543 91.6963C69.8801 91.2074 70.177 90.7576 70.6409 90.6794C73.2015 90.2101 76.0035 90.1514 78.6755 90.5034C79.7517 90.6403 80.7908 90.8359 81.7742 91.0901C82.4979 91.2661 83.203 91.4812 83.9081 91.7158C84.3535 91.8723 84.5946 92.3612 84.4462 92.8305C84.3349 93.2216 84.0009 93.4563 83.6483 93.4563Z" fill="white"/>
<path d="M83.6669 148.212C83.537 148.212 83.4257 148.192 83.3329 148.134C73.7211 144.829 66.5215 136.303 64.499 125.879C64.1278 123.943 63.9423 121.949 63.9423 119.935C63.9423 116.571 64.4804 113.247 65.5195 110.098C66.7813 106.324 68.7297 102.921 71.2718 99.9683C71.9954 99.1274 72.7561 98.3647 73.4984 97.6412C74.7601 96.4678 76.1704 95.3923 77.6363 94.4537C78.026 94.1994 78.5641 94.3363 78.7868 94.7665C79.028 95.1967 78.898 95.7443 78.4898 95.979C77.0981 96.859 75.7807 97.8563 74.5932 98.971C73.8881 99.6359 73.1644 100.379 72.4778 101.161C70.0842 103.938 68.2658 107.145 67.0782 110.685C66.0948 113.657 65.5938 116.767 65.5938 119.935C65.5938 121.831 65.7793 123.709 66.1319 125.508C68.0245 135.325 74.8344 143.362 83.8895 146.452C84.038 146.491 84.1493 146.589 84.2607 146.706C84.4091 146.863 84.5019 147.078 84.5019 147.312C84.5019 147.821 84.1308 148.212 83.6669 148.212Z" fill="white"/>
<path d="M83.6483 93.4563C83.2958 93.4563 82.9618 93.2216 82.8505 92.8305C82.702 92.3612 82.9618 91.8527 83.4071 91.7159C84.1122 91.4812 84.8174 91.2661 85.541 91.0901C86.5245 90.8359 87.5636 90.6403 88.6398 90.5034C91.2376 90.171 93.9466 90.2101 96.4887 90.6403C96.9526 90.7185 97.2681 91.1683 97.1939 91.6572C97.1196 92.1461 96.6743 92.4785 96.2289 92.4003C93.8353 92.0092 91.2932 91.9505 88.8439 92.2634C87.8419 92.4003 86.8584 92.5763 85.9492 92.811C85.2627 92.987 84.5947 93.1826 83.9267 93.4172C83.8154 93.4368 83.7411 93.4563 83.6483 93.4563Z" fill="white"/>
<path d="M70.5852 111.643C69.0822 111.643 67.6162 111.526 66.1875 111.291C60.9919 110.431 56.1304 108.045 52.1224 104.388C45.962 98.7363 42.4178 90.5621 42.4178 81.9772C42.4178 79.7283 42.659 77.499 43.1229 75.3283C43.1229 75.3088 43.1229 75.2892 43.1415 75.2696C43.1786 75.1132 43.2528 74.9567 43.3642 74.859L43.7724 75.2892H43.9951L44.8115 75.5238C44.8115 75.5434 44.793 75.5825 44.793 75.6021C44.793 75.6412 44.7929 75.6803 44.7744 75.7194C44.3291 77.7532 44.1064 79.8457 44.1064 81.9772C44.1064 90.0537 47.4278 97.739 53.2171 103.039C56.9839 106.48 61.5486 108.71 66.4287 109.531C69.8244 110.098 73.517 109.942 76.9126 109.062C77.9517 108.788 78.9909 108.455 80.0671 108.025C80.4939 107.849 80.9948 108.084 81.1618 108.534C81.3288 108.983 81.1062 109.511 80.6795 109.687C79.529 110.157 78.4341 110.509 77.3208 110.802C75.1498 111.35 72.8676 111.643 70.5852 111.643Z" fill="white"/>
<path d="M96.5444 111.643C94.3177 111.643 92.1281 111.369 89.9942 110.822C88.8809 110.548 87.749 110.176 86.6171 109.746C86.1718 109.57 85.9492 109.062 86.1162 108.592C86.2832 108.123 86.7656 107.888 87.2109 108.064C88.2686 108.475 89.3448 108.827 90.3839 109.081C93.8167 109.961 97.5464 110.078 100.831 109.492C105.711 108.651 110.257 106.383 114.005 102.941C119.72 97.6412 123.005 89.995 123.005 81.9772C123.005 79.8848 122.782 77.7923 122.337 75.7585C122.337 75.7389 122.337 75.739 122.337 75.7194C122.318 75.6803 122.318 75.6216 122.3 75.5825C122.133 75.1327 122.355 74.6243 122.782 74.4483C123.227 74.2723 123.71 74.5265 123.877 74.9763C123.895 75.0154 123.932 75.1523 123.951 75.2501C123.951 75.2892 123.969 75.3283 123.969 75.3674C124.433 77.5185 124.675 79.7479 124.675 81.9772C124.675 90.5034 121.186 98.6385 115.1 104.29C111.111 107.967 106.268 110.372 101.091 111.271C99.6618 111.506 98.1216 111.643 96.5444 111.643Z" fill="white"/>
<path d="M88.3057 104.74C88.0831 104.74 87.8418 104.642 87.6934 104.447C87.3779 104.095 87.3965 103.527 87.7491 103.195C87.8419 103.117 87.916 103.039 88.0088 102.96C88.6768 102.354 89.2705 101.728 89.8458 101.083C90.7921 100.027 91.6457 98.8927 92.425 97.6998C93.7425 95.6856 94.7816 93.4954 95.5609 91.2074C95.6351 91.0119 95.765 90.8358 95.932 90.7381L122.726 74.683C123.116 74.4483 123.654 74.5852 123.877 75.0154C124.099 75.4457 123.97 75.9932 123.561 76.2279L97.0453 92.1266C96.2474 94.4537 95.1527 96.6634 93.8353 98.7168C93.0003 99.9879 92.0911 101.2 91.0891 102.315C90.4582 103.019 89.8272 103.664 89.1592 104.29L88.8995 104.525C88.714 104.662 88.5098 104.74 88.3057 104.74Z" fill="white"/>
<path d="M78.8609 104.838C78.731 104.838 78.5826 104.798 78.4528 104.681C78.4342 104.662 78.2857 104.525 78.2671 104.505C77.4878 103.801 76.7457 103.058 76.022 102.256C75.0942 101.22 74.2036 100.046 73.3686 98.8145C72.014 96.7612 70.9192 94.5123 70.1028 92.146L43.5498 76.2279C43.1415 75.9932 43.0116 75.4456 43.2342 75.0154C43.4569 74.5852 43.9764 74.4287 44.3847 74.6829L71.1975 90.7576C71.383 90.8554 71.5129 91.0314 71.5686 91.2269C72.3479 93.554 73.4242 95.7638 74.7416 97.778C75.521 98.9514 76.3559 100.046 77.228 101.024C77.9146 101.787 78.6011 102.491 79.3062 103.117C79.6588 103.43 79.7888 104.055 79.5104 104.427C79.3434 104.701 79.1021 104.838 78.8609 104.838Z" fill="white"/>
<path d="M12.3949 147.762C12.265 147.762 12.1166 147.684 12.0424 147.567C11.9125 147.351 11.9681 147.078 12.1723 146.96L66.0947 110.039C66.2803 109.903 66.5586 109.961 66.6699 110.176C66.7998 110.391 66.7441 110.665 66.54 110.783L12.6176 147.703C12.5619 147.743 12.4691 147.762 12.3949 147.762Z" fill="white"/>
<path d="M83.6483 80.0998C83.4071 80.0998 83.2216 79.9043 83.2216 79.6501V10.6385C83.2216 10.3843 83.4071 10.1887 83.6483 10.1887C83.8895 10.1887 84.075 10.3843 84.075 10.6385V79.6501C84.075 79.9043 83.8895 80.0998 83.6483 80.0998Z" fill="white"/>
<path d="M154.902 147.762C154.827 147.762 154.735 147.743 154.679 147.684L100.738 110.743C100.534 110.607 100.478 110.333 100.608 110.137C100.738 109.922 100.998 109.883 101.183 110L155.124 146.96C155.328 147.097 155.384 147.371 155.254 147.567C155.18 147.703 155.05 147.762 154.902 147.762Z" fill="white"/>
</g>
</svg>
