<svg width="135" height="142" viewBox="0 0 135 142" fill="none" xmlns="http://www.w3.org/2000/svg">
<g opacity="0.5">
<path d="M67.1754 28.2106C66.8004 28.2106 66.5005 27.895 66.5005 27.4848V7.0368C66.5005 6.64236 66.8004 6.31104 67.1754 6.31104C67.5504 6.31104 67.8655 6.62658 67.8655 7.0368V27.4848C67.8655 27.8792 67.5504 28.2106 67.1754 28.2106Z" fill="white"/>
<path d="M67.1754 111.596C66.8004 111.596 66.5005 111.281 66.5005 110.87V96.1497C66.5005 95.7553 66.8004 95.4239 67.1754 95.4239C67.5504 95.4239 67.8655 95.7395 67.8655 96.1497V110.87C67.8655 111.281 67.5504 111.596 67.1754 111.596Z" fill="white"/>
<path d="M27.9355 134.789C27.8005 134.789 27.6505 134.742 27.5305 134.647C27.2305 134.411 27.1555 133.969 27.3805 133.638L38.8105 117.103C39.0355 116.787 39.4555 116.708 39.7705 116.945C40.0705 117.181 40.1455 117.623 39.9205 117.955L28.4905 134.49C28.3555 134.679 28.1455 134.789 27.9355 134.789Z" fill="white"/>
<path d="M106.416 134.789C106.206 134.789 105.996 134.679 105.861 134.49L94.4305 117.955C94.2055 117.639 94.2805 117.181 94.5805 116.945C94.8805 116.708 95.3155 116.787 95.5405 117.103L106.971 133.638C107.196 133.953 107.12 134.411 106.82 134.647C106.7 134.742 106.551 134.789 106.416 134.789Z" fill="white"/>
<path d="M112.175 62.6062C111.89 62.6062 111.62 62.4168 111.53 62.117C111.41 61.7384 111.605 61.3281 111.965 61.2177L130.46 54.8908C130.82 54.7646 131.21 54.9697 131.315 55.3484C131.435 55.727 131.24 56.1373 130.88 56.2477L112.385 62.5746C112.31 62.5904 112.25 62.6062 112.175 62.6062Z" fill="white"/>
<path d="M36.7854 88.3713C36.5004 88.3713 36.2304 88.182 36.1404 87.8822C36.0204 87.5035 36.2155 87.0933 36.5755 86.9828L49.8805 82.4388C50.2405 82.3126 50.6305 82.5177 50.7355 82.8964C50.8555 83.2751 50.6604 83.6853 50.3004 83.7957L36.9954 88.3397C36.9354 88.3555 36.8604 88.3713 36.7854 88.3713Z" fill="white"/>
<path d="M56.6155 62.7008C56.4055 62.7008 56.1955 62.5903 56.0605 62.401L47.8405 50.4888C47.6155 50.1733 47.6905 49.7157 47.9905 49.479C48.2905 49.2423 48.7255 49.3212 48.9505 49.6368L57.1705 61.549C57.3955 61.8646 57.3205 62.3221 57.0205 62.5588C56.9005 62.6535 56.7505 62.7008 56.6155 62.7008Z" fill="white"/>
<path d="M77.7355 62.7008C77.6005 62.7008 77.4505 62.6535 77.3305 62.5588C77.0305 62.3221 76.9555 61.8804 77.1805 61.549L85.4005 49.6368C85.6255 49.3212 86.0455 49.2423 86.3605 49.479C86.6605 49.7157 86.7355 50.1575 86.5105 50.4888L78.2905 62.401C78.1555 62.5903 77.9455 62.7008 77.7355 62.7008Z" fill="white"/>
<path d="M97.5654 88.3713C97.4904 88.3713 97.4304 88.3555 97.3554 88.3397L84.0504 83.7957C83.6904 83.6695 83.4954 83.2751 83.6154 82.8964C83.7354 82.5177 84.1255 82.3126 84.4705 82.4388L97.7755 86.9828C98.1355 87.1091 98.3304 87.5035 98.2104 87.8822C98.1204 88.182 97.8504 88.3713 97.5654 88.3713Z" fill="white"/>
<path d="M22.1754 62.6062C22.1004 62.6062 22.0405 62.5904 21.9655 62.5746L3.47045 56.2477C3.11045 56.1215 2.91539 55.727 3.03539 55.3484C3.15539 54.9697 3.5304 54.7646 3.8904 54.8908L22.3854 61.2177C22.7454 61.3439 22.9404 61.7384 22.8204 62.117C22.7304 62.4168 22.4754 62.6062 22.1754 62.6062Z" fill="white"/>
<path d="M67.1754 96.8755C67.0404 96.8755 66.8905 96.8281 66.7705 96.7335L49.6855 83.6853C49.4455 83.4959 49.3405 83.1804 49.4305 82.8806L55.9555 61.7541C56.0455 61.4543 56.3154 61.265 56.6004 61.265H77.7205C78.0205 61.265 78.2755 61.4701 78.3655 61.7541L84.8904 82.8806C84.9804 83.1804 84.8755 83.4959 84.6355 83.6853L67.5504 96.7335C67.4604 96.8281 67.3254 96.8755 67.1754 96.8755ZM50.8855 82.8333L67.1754 95.2662L83.4655 82.8333L77.2405 62.7008H57.1105L50.8855 82.8333Z" fill="white"/>
<path d="M106.416 134.789H27.9355C27.6355 134.789 27.3805 134.584 27.2905 134.3L3.0354 55.8059C2.9454 55.5061 3.05047 55.1906 3.29047 55.0012L66.7705 6.48457C67.0105 6.29524 67.3404 6.29524 67.5804 6.48457L131.075 55.0012C131.315 55.1906 131.42 55.5061 131.33 55.8059L107.075 134.3C106.97 134.584 106.716 134.789 106.416 134.789ZM28.4454 133.354H105.92L129.86 55.8375L67.1754 7.93615L4.49045 55.8375L28.4454 133.354Z" fill="white"/>
<path d="M94.9855 118.254C94.9405 118.254 94.8805 118.254 94.8355 118.239L67.1755 111.628L39.5155 118.239C39.3205 118.286 39.1255 118.239 38.9605 118.112C38.7955 117.986 38.7055 117.797 38.6755 117.592L36.1105 87.8822L21.5905 62.259C21.4855 62.0855 21.4705 61.8646 21.5305 61.6753C21.5905 61.4702 21.7255 61.3124 21.9055 61.2335L47.9755 49.479L66.6505 27.0273C66.9055 26.7117 67.4155 26.7117 67.6855 27.0273L86.3605 49.479L112.431 61.2335C112.611 61.3124 112.746 61.4702 112.806 61.6753C112.866 61.8804 112.85 62.0855 112.745 62.259L98.2255 87.8822L95.6604 117.592C95.6454 117.797 95.5405 117.986 95.3755 118.112C95.2705 118.207 95.1355 118.254 94.9855 118.254ZM67.1755 110.16C67.2205 110.16 67.2805 110.16 67.3255 110.176L94.3705 116.645L96.8755 87.5824C96.8905 87.472 96.9205 87.3773 96.9655 87.2826L111.17 62.2117L85.6705 50.7255C85.5805 50.6781 85.4905 50.615 85.4305 50.5362L67.1604 28.5735L48.8905 50.5362C48.8304 50.615 48.7405 50.6781 48.6505 50.7255L23.1505 62.2117L37.3554 87.2826C37.4154 87.3773 37.4454 87.472 37.4454 87.5824L39.9505 116.645L66.9955 110.176C67.0705 110.16 67.1305 110.16 67.1755 110.16Z" fill="white"/>
<path d="M37.6554 120.353C37.5054 120.353 37.3705 120.242 37.3255 120.085L21.8454 61.975C21.8004 61.7857 21.9054 61.5806 22.0854 61.5333C22.2654 61.4701 22.4605 61.5964 22.5055 61.7857L37.9855 119.895C38.0305 120.085 37.9254 120.29 37.7454 120.337C37.7154 120.353 37.6854 120.353 37.6554 120.353Z" fill="white"/>
<path d="M33.9355 125.765C33.7705 125.765 33.6355 125.638 33.6055 125.481L21.8605 61.975C21.8305 61.7857 21.9505 61.5964 22.1305 61.549C22.3405 61.5017 22.4904 61.6437 22.5354 61.833L34.2805 125.339C34.3105 125.528 34.1905 125.717 34.0105 125.765C33.9655 125.765 33.9505 125.765 33.9355 125.765Z" fill="white"/>
<path d="M29.9155 131.555C29.7505 131.555 29.6004 131.429 29.5704 131.239L21.8305 61.9277C21.8155 61.7226 21.9355 61.549 22.1305 61.5332C22.3105 61.4859 22.4905 61.6595 22.5055 61.8488L30.2454 131.161C30.2604 131.366 30.1404 131.539 29.9454 131.555C29.9454 131.555 29.9305 131.555 29.9155 131.555Z" fill="white"/>
<path d="M23.9755 121.599C23.7955 121.599 23.6455 121.441 23.6305 121.252L21.8305 61.8962C21.8305 61.6911 21.9654 61.5333 22.1604 61.5333C22.1604 61.5333 22.1604 61.5333 22.1754 61.5333C22.3554 61.5333 22.5055 61.691 22.5205 61.8804L24.3204 121.236C24.3354 121.441 24.1855 121.599 23.9755 121.599C23.9905 121.599 23.9905 121.599 23.9755 121.599Z" fill="white"/>
<path d="M18.9955 105.459C18.9805 105.459 18.9806 105.459 18.9656 105.459C18.7706 105.443 18.6355 105.269 18.6505 105.08L21.8455 61.8804C21.8605 61.6753 22.0255 61.5175 22.2055 61.549C22.4005 61.5648 22.5355 61.7384 22.5205 61.9277L19.3255 105.127C19.3255 105.317 19.1755 105.459 18.9955 105.459Z" fill="white"/>
<path d="M15.9205 95.5028C15.9055 95.5028 15.8755 95.5028 15.8605 95.5028C15.6805 95.4713 15.5605 95.282 15.5905 95.0768L20.9755 66.4875L13.8055 87.3773C13.7455 87.5666 13.5505 87.6613 13.3705 87.5981C13.1905 87.535 13.1004 87.33 13.1604 87.1406L21.8605 61.7699C21.9205 61.5964 22.1005 61.5017 22.2655 61.5491C22.4455 61.5964 22.5505 61.7857 22.5055 61.9593L16.2355 95.2188C16.2205 95.3766 16.0705 95.5028 15.9205 95.5028Z" fill="white"/>
<path d="M11.4055 80.9084C11.3455 80.9084 11.2855 80.8926 11.2255 80.861C11.0605 80.7506 11.0155 80.5455 11.1055 80.3719L20.6605 63.821L9.6355 74.3448C9.5005 74.471 9.27549 74.471 9.15549 74.3133C9.03549 74.1713 9.03552 73.9346 9.18552 73.8084L21.9505 61.6121C22.0855 61.4859 22.2655 61.4859 22.4005 61.5964C22.5355 61.7068 22.5655 61.9119 22.4755 62.0539L11.7055 80.719C11.6305 80.8453 11.5255 80.9084 11.4055 80.9084Z" fill="white"/>
<path d="M7.77548 69.1381C7.64048 69.1381 7.52045 69.0592 7.46045 68.933C7.38545 68.7437 7.46052 68.5386 7.62552 68.4597L20.4804 62.3063L5.79547 62.7639C5.79547 62.7639 5.79546 62.7639 5.78046 62.7639C5.60046 62.7639 5.45049 62.6061 5.43549 62.4168C5.43549 62.2117 5.57044 62.0539 5.76544 62.0539L22.1455 61.5332C22.2805 61.5175 22.4455 61.6437 22.4905 61.8172C22.5205 61.9908 22.4455 62.1486 22.2955 62.2275L7.89551 69.1223C7.86551 69.1381 7.82048 69.1381 7.77548 69.1381Z" fill="white"/>
<path d="M38.3755 106.326C38.2405 106.326 38.1055 106.232 38.0605 106.09L21.8755 62.0224C21.8005 61.8331 21.8904 61.6279 22.0704 61.5648C22.2504 61.4859 22.4455 61.5806 22.5055 61.7699L38.6904 105.837C38.7654 106.027 38.6754 106.232 38.4954 106.295C38.4504 106.311 38.4055 106.326 38.3755 106.326Z" fill="white"/>
</g>
</svg>
